# File created by Blade
# Date/Time:  Tue Jan 27 17:21:46 2015
#---------------------------------------------------------
:version 1.10
:name HOM
:units
  mass 1.0
  length 1.000000
  angle deg
:documentation
     Acclaim Skeleton File
:root
   axis xyz
   order TX TY TZ RX RY RZ
   position 0.000000 0.000000 0.000000
   orientation 0 0 0
:bonedata
   begin
      id 1
      name Spine_dum
      direction 0.000000 1.000000 0.000000
      length 7.539951
      axis 0.0 0.0 0.0 xyz
   end
   begin
      id 2
      name LeftUpLeg_dum
      direction 1.000000 0.000000 0.000000
      length 3.345476
      axis 0.0 0.0 0.0 xyz
   end
   begin
      id 3
      name RightUpLeg_dum
      direction -1.000000 0.000000 0.000000
      length 3.345476
      axis 0.0 0.0 0.0 xyz
   end
   begin
      id 4
      name Spine
      direction 0.000000 1.000000 0.000000
      length 0.000000
      axis 0.0 0.0 0.0 xyz
      dof rx ry rz
   end
   begin
      id 5
      name Spine_dum1
      direction 0.000000 1.000000 0.000000
      length 15.093809
      axis 0.0 0.0 0.0 xyz
   end
   begin
      id 6
      name Spine_dum2
      direction 0.000000 1.000000 0.000000
      length 9.738928
      axis 0.0 0.0 0.0 xyz
   end
   begin
      id 7
      name Spine_dum3
      direction 0.000000 1.000000 0.000000
      length 9.738928
      axis 0.0 0.0 0.0 xyz
   end
   begin
      id 8
      name Head
      direction 0.000000 1.000000 0.000000
      length 4.527550
      axis 0.0 0.0 0.0 xyz
      dof rx ry rz
   end
   begin
      id 9
      name LeftShoulder
      direction 1.000000 0.000000 0.000000
      length 7.084015
      axis 0.0 0.0 -90.0 xyz
      dof rx ry rz
   end
   begin
      id 10
      name LeftArm
      direction 1.000000 0.000000 0.000000
      length 10.259319
      axis 0.0 0.0 -90.0 xyz
      dof rx ry rz
   end
   begin
      id 11
      name LeftForeArm
      direction 1.000000 0.000000 0.000000
      length 9.896984
      axis 0.0 0.0 -90.0 xyz
      dof ry rz rx
   end
   begin
      id 12
      name LeftHand
      direction 0.000000 0.000000 0.000000
      length 0.000000
      axis 0.0 0.0 -90.0 xyz
      dof rx ry rz
   end
   begin
      id 13
      name LeftHand_dum1
      direction 0.000000 0.000000 0.000000
      length 0.000000
      axis 0.0 0.0 -90.0 xyz
   end
   begin
      id 14
      name LeftHand_dum2
      direction 1.000000 0.000000 0.000000
      length 3.937000
      axis 0.0 0.0 -90.0 xyz
   end
   begin
      id 15
      name LeftHandThumb1
      direction 0.000000 0.000000 1.000000
      length 3.937000
      axis 0.0 0.0 -90.0 xyz
      dof rx rz ry
   end
   begin
      id 16
      name RightShoulder
      direction -1.000000 0.000000 0.000000
      length 7.084015
      axis 0.0 0.0 90.0 xyz
      dof rx ry rz
   end
   begin
      id 17
      name RightArm
      direction -1.000000 0.000000 0.000000
      length 10.259319
      axis 0.0 0.0 90.0 xyz
      dof rx ry rz
   end
   begin
      id 18
      name RightForeArm
      direction -1.000000 0.000000 0.000000
      length 9.896984
      axis 0.0 0.0 90.0 xyz
      dof ry rz rx
   end
   begin
      id 19
      name RightHand
      direction 0.000000 0.000000 0.000000
      length 0.000000
      axis 0.0 0.0 90.0 xyz
      dof rx ry rz
   end
   begin
      id 20
      name RightHand_dum1
      direction 0.000000 0.000000 0.000000
      length 0.000000
      axis 0.0 0.0 90.0 xyz
   end
   begin
      id 21
      name RightHand_dum2
      direction -1.000000 0.000000 0.000000
      length 3.937000
      axis 0.0 0.0 90.0 xyz
   end
   begin
      id 22
      name RightHandThumb1
      direction 0.000000 0.000000 1.000000
      length 3.937000
      axis 0.0 0.0 90.0 xyz
      dof rx rz ry
   end
   begin
      id 23
      name LeftUpLeg
      direction 0.000000 -1.000000 0.000000
      length 19.114733
      axis 0.0 0.0 0.0 xyz
      dof rx ry rz
   end
   begin
      id 24
      name LeftLeg
      direction 0.000000 -1.000000 0.000000
      length 16.045604
      axis 0.0 0.0 0.0 xyz
      dof rx ry rz
   end
   begin
      id 25
      name LeftFoot
      direction 0.000000 -0.258819 0.965926
      length 5.543155
      axis 15.0 0.0 0.0 xyz
      dof rx ry rz
   end
   begin
      id 26
      name LeftToeBase
      direction 0.000000 0.000000 1.000000
      length 2.952750
      axis 0.0 0.0 0.0 xyz
      dof rx ry rz
   end
   begin
      id 27
      name RightUpLeg
      direction 0.000000 -1.000000 0.000000
      length 19.114733
      axis 0.0 0.0 0.0 xyz
      dof rx ry rz
   end
   begin
      id 28
      name RightLeg
      direction 0.000000 -1.000000 0.000000
      length 16.045604
      axis 0.0 0.0 0.0 xyz
      dof rx ry rz
   end
   begin
      id 29
      name RightFoot
      direction 0.000000 -0.258819 0.965926
      length 5.543155
      axis 15.0 0.0 0.0 xyz
      dof rx ry rz
   end
   begin
      id 30
      name RightToeBase
      direction 0.000000 0.000000 1.000000
      length 2.952750
      axis 0.0 0.0 0.0 xyz
      dof rx ry rz
   end
:hierarchy
   begin
      root Spine_dum LeftUpLeg_dum RightUpLeg_dum
      Spine_dum Spine
      LeftUpLeg_dum LeftUpLeg
      RightUpLeg_dum RightUpLeg
      Spine Spine_dum1 Spine_dum2 Spine_dum3
      Spine_dum1 Head
      Spine_dum2 LeftShoulder
      Spine_dum3 RightShoulder
      LeftShoulder LeftArm
      LeftArm LeftForeArm
      LeftForeArm LeftHand
      LeftHand LeftHand_dum1 LeftHand_dum2
      LeftHand_dum1 LeftHandThumb1
      RightShoulder RightArm
      RightArm RightForeArm
      RightForeArm RightHand
      RightHand RightHand_dum1 RightHand_dum2
      RightHand_dum1 RightHandThumb1
      LeftUpLeg LeftLeg
      LeftLeg LeftFoot
      LeftFoot LeftToeBase
      RightUpLeg RightLeg
      RightLeg RightFoot
      RightFoot RightToeBase
   end

# File created by Blade
# Date/Time:  Tue Jan 27 17:21:37 2015
# Frame Rate: 120.000 fps
#------------------------------------------------------
:FULLY-SPECIFIED
:DEGREES
3454
root -1.514425 36.976253 -0.232661 20.590239 34.179158 17.849797
Spine 3.814818 3.330174 -5.589156
Head -2.146745 16.205600 -7.379471
LeftShoulder 0.099747 -15.290506 6.802199
LeftArm 5.798429 -16.377914 -45.639845
LeftForeArm -5.378029 0.000000 68.819174
LeftHand -15.724616 -0.000000 53.959160
LeftHandThumb1 -26.253704 0.000000 33.147579
RightShoulder -4.655112 -16.995193 -4.178527
RightArm 8.066666 -15.898552 53.365862
RightForeArm 188.357972 -0.000000 33.575205
RightHand -0.735891 -0.000000 2.379794
RightHandThumb1 -24.326973 -0.000000 -32.862282
LeftUpLeg -34.531202 7.775115 16.662907
LeftLeg 90.193791 -0.000000 -0.000000
LeftFoot -2.873555 1.403308 -34.492023
LeftToeBase 14.241906 -0.000000 -0.000000
RightUpLeg -21.920707 -14.742008 -4.648519
RightLeg 27.053368 -0.000000 -0.000000
RightFoot -21.625696 -21.342627 1.408364
RightToeBase 0.669057 -0.000000 -0.000000
3455
root -1.499744 36.983843 -0.263070 20.653434 33.464861 17.712689
Spine 3.741741 3.731308 -5.663902
Head -2.226097 16.898996 -7.563465
LeftShoulder 0.031444 -15.303176 6.802190
LeftArm 5.759943 -16.551254 -45.716986
LeftForeArm -5.225376 -0.000000 69.070256
LeftHand -15.838979 -0.000000 54.182303
LeftHandThumb1 -26.253704 0.000000 33.147579
RightShoulder -4.493787 -16.904516 -4.305434
RightArm 8.414649 -15.846248 53.159974
RightForeArm 188.240400 -0.000000 33.653892
RightHand -0.836253 -0.000000 2.480142
RightHandThumb1 -24.326973 -0.000000 -32.862282
LeftUpLeg -34.029337 7.440432 16.629796
LeftLeg 89.942635 -0.000000 -0.000000
LeftFoot -2.539738 1.101504 -34.774151
LeftToeBase 13.902506 -0.000000 -0.000000
RightUpLeg -22.247995 -14.539507 -4.674693
RightLeg 27.042125 -0.000000 -0.000000
RightFoot -21.370378 -21.081658 0.954715
RightToeBase 0.407699 -0.000000 -0.000000
3456
root -1.484990 36.992110 -0.297318 20.782979 32.743514 17.592468
Spine 3.591363 4.116789 -5.760537
Head -2.249903 17.623950 -7.712155
LeftShoulder -0.035038 -15.281619 6.788542
LeftArm 5.725217 -16.690924 -45.748464
LeftForeArm -5.120205 0.000000 69.356030
LeftHand -15.922127 0.000000 54.196725
LeftHandThumb1 -26.253704 0.000000 33.147579
RightShoulder -4.333728 -16.842967 -4.428010
RightArm 8.755860 -15.748977 52.966049
RightForeArm 188.169963 -0.000000 33.764294
RightHand -0.853166 -0.000000 2.611151
RightHandThumb1 -24.326973 -0.000000 -32.862282
LeftUpLeg -33.575887 7.086873 16.577929
LeftLeg 89.691693 -0.000000 -0.000000
LeftFoot -2.222987 0.764795 -35.083672
LeftToeBase 14.065234 -0.000000 -0.000000
RightUpLeg -22.643953 -14.335322 -4.704879
RightLeg 27.043554 -0.000000 -0.000000
RightFoot -21.239958 -20.732106 0.686976
RightToeBase 0.426227 -0.000000 -0.000000
3457
root -1.472687 36.999388 -0.328025 20.862359 32.002887 17.416692
Spine 3.482048 4.524514 -5.812765
Head -2.329049 18.336449 -7.916229
LeftShoulder -0.080834 -15.348817 6.765700
LeftArm 5.632158 -16.837948 -45.751608
LeftForeArm -4.957575 -0.000000 69.575948
LeftHand -16.006556 0.000000 54.304387
LeftHandThumb1 -26.253704 0.000000 33.147579
RightShoulder -4.181994 -16.747860 -4.570816
RightArm 9.094721 -15.643912 52.800113
RightForeArm 188.097230 0.000000 33.876812
RightHand -0.940001 -0.000000 2.859453
RightHandThumb1 -24.326973 -0.000000 -32.862282
LeftUpLeg -33.079528 6.739313 16.589526
LeftLeg 89.454959 -0.000000 -0.000000
LeftFoot -1.937848 0.411107 -35.337190
LeftToeBase 14.217830 -0.000000 -0.000000
RightUpLeg -22.944723 -13.949266 -4.734228
RightLeg 26.904180 -0.000000 -0.000000
RightFoot -21.122540 -20.444185 0.510709
RightToeBase 0.418734 -0.000000 -0.000000
3458
root -1.457621 37.009195 -0.365355 21.015315 31.144386 17.298702
Spine 3.301947 4.998039 -5.983416
Head -2.370844 19.059261 -8.098428
LeftShoulder -0.103399 -15.397564 6.703782
LeftArm 5.538959 -16.917918 -45.580129
LeftForeArm -5.020358 -0.000000 69.782725
LeftHand -16.402759 -0.000000 55.199799
LeftHandThumb1 -26.253704 0.000000 33.147579
RightShoulder -4.009149 -16.654945 -4.712179
RightArm 9.412874 -15.512264 52.674521
RightForeArm 188.145619 -0.000000 34.002013
RightHand -0.951479 0.000000 2.960897
RightHandThumb1 -24.326973 -0.000000 -32.862282
LeftUpLeg -32.586101 6.501331 16.487303
LeftLeg 89.190919 -0.000000 -0.000000
LeftFoot -1.692913 0.164002 -35.511224
LeftToeBase 13.781055 -0.000000 -0.000000
RightUpLeg -23.381491 -13.622267 -4.810168
RightLeg 26.883269 -0.000000 -0.000000
RightFoot -20.979172 -20.047885 0.298013
RightToeBase 0.308062 -0.000000 -0.000000
3459
root -1.435852 37.018101 -0.391626 21.120561 30.350311 17.179863
Spine 3.158508 5.409335 -6.117552
Head -2.389461 19.801741 -8.284491
LeftShoulder -0.155072 -15.422971 6.704643
LeftArm 5.433458 -17.118274 -45.611621
LeftForeArm -4.828310 -0.000000 69.963044
LeftHand -16.436236 -0.000000 55.222641
LeftHandThumb1 -26.253704 0.000000 33.147579
RightShoulder -3.864442 -16.540142 -4.850900
RightArm 9.708244 -15.394027 52.555812
RightForeArm 188.106966 -0.000000 34.138728
RightHand -0.989670 0.000000 2.958996
RightHandThumb1 -24.326973 -0.000000 -32.862282
LeftUpLeg -32.042083 6.218426 16.408749
LeftLeg 88.924648 -0.000000 -0.000000
LeftFoot -1.484554 -0.041906 -35.532926
LeftToeBase 13.739601 -0.000000 -0.000000
RightUpLeg -23.739042 -13.393879 -4.872956
RightLeg 26.874794 -0.000000 -0.000000
RightFoot -20.865968 -19.589902 0.051476
RightToeBase 0.295190 -0.000000 -0.000000
3460
root -1.415872 37.025627 -0.413806 21.172122 29.681945 17.091128
Spine 3.141389 5.664746 -6.229373
Head -2.513061 20.638879 -8.523297
LeftShoulder -0.192978 -15.470772 6.639874
LeftArm 5.281425 -17.226511 -45.401914
LeftForeArm -4.769130 -0.000000 70.190426
LeftHand -16.578630 -0.000000 55.485338
LeftHandThumb1 -26.253704 0.000000 33.147579
RightShoulder -3.674908 -16.408609 -5.008773
RightArm 9.980945 -15.197001 52.489268
RightForeArm 188.172127 0.000000 34.311752
RightHand -0.979895 -0.000000 3.067886
RightHandThumb1 -24.326973 -0.000000 -32.862282
LeftUpLeg -31.462852 5.766203 16.383815
LeftLeg 88.649851 -0.000000 -0.000000
LeftFoot -1.268529 -0.236506 -35.662604
LeftToeBase 13.614989 -0.000000 -0.000000
RightUpLeg -23.969567 -13.170863 -4.944090
RightLeg 26.807698 -0.000000 -0.000000
RightFoot -20.778050 -19.309330 -0.153004
RightToeBase 0.288281 -0.000000 -0.000000
